<svg width="162" height="123" viewBox="0 0 162 123" fill="none" xmlns="http://www.w3.org/2000/svg">
<path d="M0.179916 114.75C-0.13629 114.297 -0.025564 113.673 0.427241 113.357L7.80609 108.204C8.25888 107.888 8.88229 107.999 9.1985 108.452C9.51472 108.904 9.40398 109.528 8.95117 109.844L2.39222 114.424L6.9726 120.983C7.2888 121.436 7.17808 122.059 6.72527 122.376C6.27247 122.692 5.64907 122.581 5.33285 122.128L0.179916 114.75ZM159.954 0.500061C160.948 0.398398 160.948 0.398994 160.949 0.399873C160.949 0.400545 160.949 0.401709 160.949 0.40305C160.949 0.405734 160.95 0.409549 160.95 0.414488C160.951 0.424365 160.952 0.438737 160.954 0.457545C160.958 0.49516 160.963 0.55052 160.97 0.623157C160.983 0.768429 161.002 0.982815 161.025 1.26257C161.07 1.82206 161.13 2.64309 161.19 3.69566C161.31 5.80065 161.431 8.83263 161.432 12.5515C161.434 19.9866 160.96 30.1806 159.053 41.2078C155.248 63.2167 145.688 88.7888 122.528 102.16L121.528 100.428C143.908 87.5068 153.31 62.6821 157.083 40.8671C158.965 29.9824 159.434 19.9077 159.432 12.5521C159.431 8.87558 159.312 5.88169 159.193 3.80966C159.134 2.77373 159.075 1.96846 159.031 1.42377C159.009 1.15144 158.991 0.944271 158.978 0.80601C158.972 0.73688 158.967 0.684979 158.964 0.650775C158.962 0.633673 158.961 0.620995 158.96 0.6128C158.959 0.608703 158.959 0.605726 158.959 0.603878C158.959 0.602953 158.959 0.602415 158.959 0.601952C158.959 0.601696 158.959 0.601724 159.954 0.500061ZM122.528 102.16C99.5236 115.442 69.0463 118.661 44.4343 118.595C32.1087 118.562 21.2133 117.704 13.3986 116.855C9.49066 116.431 6.3516 116.008 4.18755 115.691C3.10547 115.533 2.26707 115.401 1.69807 115.308C1.41357 115.262 1.19641 115.225 1.04981 115.2C0.976509 115.188 0.920848 115.178 0.883237 115.172C0.864419 115.169 0.850125 115.166 0.840382 115.164C0.835517 115.163 0.831789 115.163 0.829202 115.162C0.827922 115.162 0.826844 115.162 0.826196 115.162C0.82541 115.162 0.824903 115.162 0.999791 114.177C1.17468 113.192 1.17476 113.192 1.17511 113.192C1.17562 113.193 1.17627 113.193 1.17727 113.193C1.17929 113.193 1.18245 113.194 1.18674 113.195C1.19533 113.196 1.20847 113.198 1.22612 113.201C1.26143 113.208 1.31474 113.217 1.38566 113.229C1.52751 113.253 1.7398 113.289 2.01932 113.334C2.57837 113.425 3.40627 113.555 4.47732 113.712C6.6195 114.026 9.73385 114.445 13.6146 114.867C21.3773 115.711 32.2005 116.562 44.4397 116.595C68.9573 116.66 98.9943 113.438 121.528 100.428L122.528 102.16Z" fill="#FD7A5F"/>
</svg>
