<svg width="152" height="39" viewBox="0 0 152 39" fill="none" xmlns="http://www.w3.org/2000/svg">
<path d="M151.747 31.2688C152.114 30.8563 152.077 30.2242 151.665 29.857L144.942 23.8732C144.53 23.506 143.898 23.5428 143.53 23.9553C143.163 24.3678 143.2 24.9999 143.612 25.3671L149.588 30.686L144.269 36.6617C143.902 37.0743 143.939 37.7064 144.351 38.0736C144.764 38.4408 145.396 38.404 145.763 37.9915L151.747 31.2688ZM0.378863 1.78369C11.7894 10.8272 26.9393 17.1866 43.1788 21.6536C59.4284 26.1234 76.8328 28.7157 92.8029 30.1878C108.776 31.6602 123.335 32.0138 133.899 31.9996C139.182 31.9925 143.468 31.8933 146.435 31.7959C147.919 31.7472 149.073 31.6989 149.856 31.6627C150.248 31.6446 150.548 31.6295 150.75 31.619C150.851 31.6137 150.927 31.6095 150.979 31.6067C151.005 31.6053 151.024 31.6042 151.037 31.6034C151.044 31.603 151.049 31.6028 151.053 31.6026C151.054 31.6025 151.056 31.6024 151.056 31.6023C151.057 31.6023 151.058 31.6022 151 30.6039C150.942 29.6056 150.942 29.6056 150.941 29.6057C150.94 29.6057 150.939 29.6058 150.938 29.6058C150.935 29.606 150.93 29.6063 150.924 29.6066C150.912 29.6073 150.893 29.6084 150.869 29.6097C150.819 29.6125 150.744 29.6165 150.645 29.6217C150.447 29.6321 150.152 29.6469 149.764 29.6648C148.989 29.7006 147.844 29.7485 146.37 29.797C143.421 29.8938 139.156 29.9925 133.897 29.9996C123.376 30.0138 108.882 29.6615 92.9865 28.1963C77.0882 26.7307 59.8084 24.1537 43.7093 19.7253C27.6001 15.294 12.7369 9.02619 1.62114 0.216282L0.378863 1.78369Z" fill="#19A498"/>
</svg>
