<svg width="152" height="39" viewBox="0 0 152 39" fill="none" xmlns="http://www.w3.org/2000/svg">
<path d="M0.253035 31.2688C-0.114159 30.8563 -0.077401 30.2242 0.335136 29.857L7.05782 23.8732C7.47036 23.506 8.10245 23.5428 8.46965 23.9553C8.83684 24.3678 8.80008 24.9999 8.38755 25.3671L2.41183 30.686L7.73074 36.6617C8.09793 37.0743 8.06117 37.7064 7.64864 38.0736C7.2361 38.4408 6.604 38.404 6.23681 37.9915L0.253035 31.2688ZM151.621 1.78369C140.211 10.8272 125.061 17.1866 108.821 21.6536C92.5716 26.1234 75.1672 28.7157 59.1971 30.1878C43.224 31.6602 28.6654 32.0138 18.1006 31.9996C12.8176 31.9925 8.53152 31.8933 5.56463 31.7959C4.08114 31.7472 2.92735 31.6989 2.14351 31.6627C1.75158 31.6446 1.45214 31.6295 1.2502 31.619C1.14923 31.6137 1.07264 31.6095 1.02106 31.6067C0.995265 31.6053 0.975723 31.6042 0.962512 31.6034C0.955906 31.603 0.950883 31.6028 0.947452 31.6026C0.945737 31.6025 0.94436 31.6024 0.943501 31.6023C0.942524 31.6023 0.941946 31.6022 1 30.6039C1.05805 29.6056 1.05828 29.6056 1.0589 29.6057C1.05964 29.6057 1.06066 29.6058 1.06214 29.6058C1.06509 29.606 1.06964 29.6063 1.07576 29.6066C1.08802 29.6073 1.10659 29.6084 1.13142 29.6097C1.18106 29.6125 1.25569 29.6165 1.35466 29.6217C1.55262 29.6321 1.84798 29.6469 2.23571 29.6648C3.01118 29.7006 4.15611 29.7485 5.63028 29.797C8.57869 29.8938 12.8436 29.9925 18.1033 29.9996C28.6241 30.0138 43.1182 29.6615 59.0135 28.1963C74.9118 26.7307 92.1916 24.1537 108.291 19.7253C124.4 15.294 139.263 9.02619 150.379 0.216282L151.621 1.78369Z" fill="white"/>
</svg>
