<svg width="76" height="72" viewBox="0 0 76 72" fill="none" xmlns="http://www.w3.org/2000/svg">
<path d="M10.5962 19.4999C18.9181 16.4524 41.6213 12.1858 65.8593 19.4999" stroke="#6067AB" stroke-width="4"/>
<path d="M2 10.305V27.8256C21.6575 44.8152 70.5616 34.1967 72 27.8256V10.305C53.3014 -3.4991 12.5479 2.34109 2 10.305Z" stroke="#6067AB" stroke-width="4"/>
<path d="M2.00777 10.0769C1.69054 15.0128 11.049 24.3362 37.2205 24.8846C51.0201 24.3362 73.0994 22.8006 71.9574 10.0769" stroke="#6067AB" stroke-width="4"/>
<path d="M73.684 49.7884C73.684 61.1277 65.3385 70 55.4209 70C45.5033 70 37.1577 61.1277 37.1577 49.7884C37.1577 38.4491 45.5033 29.5769 55.4209 29.5769C65.3385 29.5769 73.684 38.4491 73.684 49.7884Z" stroke="#6067AB" stroke-width="4"/>
<path d="M62.6315 49.1152C62.6315 53.2581 59.3605 56.5383 55.421 56.5383C51.4815 56.5383 48.2104 53.2581 48.2104 49.1152C48.2104 44.9723 51.4815 41.6921 55.421 41.6921C59.3605 41.6921 62.6315 44.9723 62.6315 49.1152Z" stroke="#6067AB" stroke-width="4"/>
</svg>
