<svg width="73" height="73" viewBox="0 0 73 73" fill="none" xmlns="http://www.w3.org/2000/svg">
<path d="M23.4887 54.5732H7.43066C7.07894 54.5732 6.74162 54.713 6.49292 54.9617C6.24421 55.2104 6.10449 55.5477 6.10449 55.8994V60.0833C6.10449 60.435 6.24421 60.7723 6.49292 61.021C6.74162 61.2697 7.07894 61.4094 7.43066 61.4094H23.4887C23.8404 61.4094 24.1777 61.2697 24.4264 61.021C24.6752 60.7723 24.8149 60.435 24.8149 60.0833V55.9002C24.815 55.7259 24.7807 55.5534 24.7141 55.3924C24.6475 55.2315 24.5499 55.0852 24.4267 54.9619C24.3036 54.8387 24.1573 54.741 23.9964 54.6743C23.8354 54.6076 23.6629 54.5732 23.4887 54.5732ZM22.1625 58.7571H8.75683V57.2256H22.1625V58.7571Z" fill="#6067AB"/>
<path d="M38.5013 54.5732H32.4282C32.0765 54.5732 31.7392 54.713 31.4905 54.9617C31.2418 55.2104 31.1021 55.5477 31.1021 55.8994C31.1021 56.2511 31.2418 56.5885 31.4905 56.8372C31.7392 57.0859 32.0765 57.2256 32.4282 57.2256H38.5013C38.853 57.2256 39.1904 57.0859 39.4391 56.8372C39.6878 56.5885 39.8275 56.2511 39.8275 55.8994C39.8275 55.5477 39.6878 55.2104 39.4391 54.9617C39.1904 54.713 38.853 54.5732 38.5013 54.5732Z" fill="#6067AB"/>
<path d="M49.4988 54.5732H43.4272C43.0755 54.5732 42.7382 54.713 42.4895 54.9617C42.2408 55.2104 42.1011 55.5477 42.1011 55.8994C42.1011 56.2511 42.2408 56.5885 42.4895 56.8372C42.7382 57.0859 43.0755 57.2256 43.4272 57.2256H49.4988C49.8505 57.2256 50.1878 57.0859 50.4366 56.8372C50.6853 56.5885 50.825 56.2511 50.825 55.8994C50.825 55.5477 50.6853 55.2104 50.4366 54.9617C50.1878 54.713 49.8505 54.5732 49.4988 54.5732Z" fill="#6067AB"/>
<path d="M38.5013 58.7573H32.4282C32.0765 58.7573 31.7392 58.897 31.4905 59.1457C31.2418 59.3945 31.1021 59.7318 31.1021 60.0835C31.1021 60.4352 31.2418 60.7725 31.4905 61.0212C31.7392 61.2699 32.0765 61.4097 32.4282 61.4097H38.5013C38.853 61.4097 39.1904 61.2699 39.4391 61.0212C39.6878 60.7725 39.8275 60.4352 39.8275 60.0835C39.8275 59.7318 39.6878 59.3945 39.4391 59.1457C39.1904 58.897 38.853 58.7573 38.5013 58.7573Z" fill="#6067AB"/>
<path d="M49.4988 58.7573H43.4272C43.0755 58.7573 42.7382 58.897 42.4895 59.1457C42.2408 59.3945 42.1011 59.7318 42.1011 60.0835C42.1011 60.4352 42.2408 60.7725 42.4895 61.0212C42.7382 61.2699 43.0755 61.4097 43.4272 61.4097H49.4988C49.8505 61.4097 50.1878 61.2699 50.4366 61.0212C50.6853 60.7725 50.825 60.4352 50.825 60.0835C50.825 59.7318 50.6853 59.3945 50.4366 59.1457C50.1878 58.897 49.8505 58.7573 49.4988 58.7573Z" fill="#6067AB"/>
<path d="M38.5013 62.9404H32.4282C32.0765 62.9404 31.7392 63.0802 31.4905 63.3289C31.2418 63.5776 31.1021 63.9149 31.1021 64.2666C31.1021 64.6183 31.2418 64.9556 31.4905 65.2043C31.7392 65.4531 32.0765 65.5928 32.4282 65.5928H38.5013C38.853 65.5928 39.1904 65.4531 39.4391 65.2043C39.6878 64.9556 39.8275 64.6183 39.8275 64.2666C39.8275 63.9149 39.6878 63.5776 39.4391 63.3289C39.1904 63.0802 38.853 62.9404 38.5013 62.9404Z" fill="#6067AB"/>
<path d="M49.4988 62.9404H43.4272C43.0755 62.9404 42.7382 63.0802 42.4895 63.3289C42.2408 63.5776 42.1011 63.9149 42.1011 64.2666C42.1011 64.6183 42.2408 64.9556 42.4895 65.2043C42.7382 65.4531 43.0755 65.5928 43.4272 65.5928H49.4988C49.8505 65.5928 50.1878 65.4531 50.4366 65.2043C50.6853 64.9556 50.825 64.6183 50.825 64.2666C50.825 63.9149 50.6853 63.5776 50.4366 63.3289C50.1878 63.0802 49.8505 62.9404 49.4988 62.9404Z" fill="#6067AB"/>
<path d="M42.1271 15.9491L34.2375 12.7049C34.0363 12.6223 33.8179 12.5906 33.6015 12.6124C33.3851 12.6342 33.1773 12.7089 32.9966 12.8298C32.8159 12.9508 32.6677 13.1144 32.565 13.3062C32.4624 13.4979 32.4086 13.712 32.4082 13.9295C32.4082 14.9746 31.993 15.9769 31.254 16.7159C30.515 17.455 29.5127 17.8701 28.4675 17.8701C27.4224 17.8701 26.4201 17.455 25.6811 16.7159C24.9421 15.9769 24.5269 14.9746 24.5269 13.9295C24.5269 13.7113 24.473 13.4965 24.3701 13.3042C24.2672 13.1118 24.1185 12.9478 23.937 12.8267C23.7555 12.7055 23.547 12.6311 23.3299 12.6098C23.1128 12.5886 22.8937 12.6212 22.6922 12.7049L14.8027 15.9491C14.509 16.0701 14.2686 16.2924 14.1249 16.5757C13.9813 16.859 13.944 17.1843 14.0198 17.4927C14.8136 20.7244 16.6681 23.5966 19.2868 25.65C21.9055 27.7034 25.1371 28.8193 28.4649 28.8193C31.7926 28.8193 35.0243 27.7034 37.643 25.65C40.2617 23.5966 42.1162 20.7244 42.9099 17.4927C42.9858 17.1843 42.9485 16.859 42.8048 16.5757C42.6612 16.2924 42.4207 16.0701 42.1271 15.9491ZM28.4675 26.1674C25.9258 26.1712 23.4463 25.3811 21.3754 23.9074C19.3045 22.4337 17.7455 20.3501 16.9162 17.9474L22.1406 15.7983C22.5428 17.1638 23.3762 18.3625 24.5161 19.2151C25.6561 20.0677 27.0414 20.5284 28.4649 20.5284C29.8884 20.5284 31.2737 20.0677 32.4137 19.2151C33.5536 18.3625 34.387 17.1638 34.7892 15.7983L40.0136 17.9474C39.1846 20.3492 37.6264 22.4323 35.5565 23.9059C33.4867 25.3795 31.0084 26.1701 28.4675 26.1674Z" fill="#6067AB"/>
<path d="M65.7334 15.827C63.915 15.8292 62.1717 16.5526 60.8858 17.8384C59.6 19.1242 58.8767 20.8676 58.8745 22.686C58.8747 23.0377 59.0144 23.3749 59.2631 23.6235C59.5118 23.8722 59.849 24.012 60.2006 24.0122H60.7766L64.3383 36.1372V51.1691C64.3361 53.1805 63.5362 55.1089 62.1142 56.5314C60.6921 57.9539 58.764 58.7543 56.7526 58.7571H56.5252V49.3072C56.5252 48.9555 56.3855 48.6182 56.1368 48.3695C55.8881 48.1207 55.5508 47.981 55.1991 47.981H41.3311V44.1419C41.3311 43.7902 41.1914 43.4529 40.9427 43.2042C40.694 42.9555 40.3567 42.8158 40.0049 42.8158H37.9588V40.6105H52.7544C53.1061 40.6105 53.4434 40.4708 53.6921 40.2221C53.9408 39.9734 54.0805 39.6361 54.0805 39.2844V2.13867C54.0805 1.78695 53.9408 1.44963 53.6921 1.20093C53.4434 0.952222 53.1061 0.8125 52.7544 0.8125H4.17859C3.82687 0.8125 3.48955 0.952222 3.24084 1.20093C2.99214 1.44963 2.85242 1.78695 2.85242 2.13867V39.2844C2.85242 39.6361 2.99214 39.9734 3.24084 40.2221C3.48955 40.4708 3.82687 40.6105 4.17859 40.6105H18.9741V42.8158H16.928C16.5763 42.8158 16.239 42.9555 15.9903 43.2042C15.7416 43.4529 15.6019 43.7902 15.6019 44.1419V47.978H1.73389C1.38216 47.978 1.04485 48.1177 0.796142 48.3664C0.547437 48.6151 0.407715 48.9524 0.407715 49.3042V70.8617C0.407715 71.2134 0.547437 71.5507 0.796142 71.7994C1.04485 72.0481 1.38216 72.1878 1.73389 72.1878H55.1953C55.547 72.1878 55.8843 72.0481 56.133 71.7994C56.3817 71.5507 56.5215 71.2134 56.5215 70.8617V61.4095H56.7488C59.4636 61.4063 62.0664 60.3263 63.986 58.4066C65.9056 56.4868 66.9854 53.884 66.9884 51.1691V36.1349L70.5501 24.0099H71.2617C71.6134 24.0099 71.9507 23.8702 72.1994 23.6215C72.4481 23.3728 72.5878 23.0355 72.5878 22.6837C72.585 20.8665 71.862 19.1244 70.5773 17.8392C69.2925 16.554 67.5507 15.8304 65.7334 15.827ZM5.50097 9.13252H51.429V32.2905H5.50552L5.50097 9.13252ZM51.429 3.46484V6.48018H5.50552V3.46484H51.429ZM5.50552 34.9429H51.429V37.9582H5.50552V34.9429ZM21.631 40.6105H35.3027V42.8158H21.6265L21.631 40.6105ZM18.2572 45.4681H38.6765V47.978H18.2527L18.2572 45.4681ZM53.8744 69.5355H3.06006V50.6303H53.8691L53.8744 69.5355ZM65.7334 18.4794C66.6168 18.4805 67.4774 18.7591 68.1939 19.2758C68.9103 19.7926 69.4464 20.5213 69.7263 21.3591H61.7413C62.0209 20.5212 62.5567 19.7924 63.2731 19.2756C63.9895 18.7589 64.8501 18.4804 65.7334 18.4794ZM65.666 31.2417L63.5441 24.0122H67.7939L65.666 31.2417Z" fill="#6067AB"/>
</svg>
