<svg width="76" height="74" viewBox="0 0 76 74" fill="none" xmlns="http://www.w3.org/2000/svg">
<path d="M52.909 22.6414C52.0641 22.1345 51.0503 21.7966 49.8676 21.7966C46.9952 21.7966 44.2917 23.8241 43.7848 26.8655V27.0345C42.4331 26.1897 40.9124 25.6828 39.3917 25.3448V1.68966C39.3917 0.675862 38.7159 0 37.7021 0C36.6883 0 36.0124 0.675862 36.0124 1.68966V25.5138C34.3228 25.6828 32.971 26.3586 31.6193 27.2035V27.0345C30.9435 24.1621 28.409 21.9655 25.5366 21.9655C24.5228 21.9655 23.509 22.3034 22.4952 22.8103C13.8779 27.5414 -0.653096 39.8759 0.022766 67.7552C0.191732 70.9655 2.72621 73.5 5.93656 73.5C6.10552 73.5 6.27449 73.5 6.61242 73.5C10.8366 72.9931 17.0883 71.6414 23.509 67.4172C24.0159 67.0793 24.5228 66.7414 25.0297 66.4034C28.7469 64.0379 31.6193 62.0103 32.6331 56.6034C33.6469 50.8586 33.9848 40.7207 32.2952 30.9207C33.8159 29.7379 35.6745 28.8931 37.7021 28.8931C39.7297 28.8931 41.7572 29.7379 43.109 30.9207C41.5883 40.7207 41.7572 50.8586 42.771 56.6034C43.7848 62.0103 46.6572 63.869 50.3745 66.4034C50.8814 66.7414 51.3883 67.0793 51.8952 67.4172C58.1469 71.6414 64.5676 73.1621 68.7917 73.5C68.9607 73.5 69.1297 73.5 69.4676 73.5C72.6779 73.5 75.2124 70.9655 75.3814 67.7552C76.0572 39.7069 61.6952 27.3724 52.909 22.6414ZM29.2538 55.7586C28.5779 59.8138 26.5504 60.9966 23.171 63.3621C22.6641 63.7 22.1572 64.0379 21.6503 64.3759C15.9055 68.2621 10.1607 69.6138 6.44345 69.9517C4.92276 70.1207 3.74001 68.9379 3.74001 67.4172C3.06414 41.2276 16.4124 29.9069 24.3538 25.5138C24.6917 25.3448 25.1986 25.1759 25.7055 25.1759C27.0572 25.1759 28.24 26.1897 28.5779 27.5414C28.7469 28.2172 28.9159 28.8931 28.9159 29.569C27.2262 31.5965 26.2124 34.131 26.2124 37.0034C26.2124 38.0172 26.8883 38.6931 27.9021 38.6931C28.9159 38.6931 29.5917 38.0172 29.5917 37.0034C29.5917 36.4966 29.5917 35.9897 29.7607 35.4828C30.4366 43.931 29.9297 51.8724 29.2538 55.7586ZM69.1296 69.9517C65.2434 69.6138 59.4986 68.2621 53.9228 64.3759C53.4159 64.0379 52.909 63.7 52.4021 63.3621C48.8538 60.9966 46.9952 59.8138 46.3193 55.7586C45.6434 51.7034 45.1366 43.931 45.9814 35.4828C46.1503 35.9897 46.1503 36.4966 46.1503 37.0034C46.1503 38.0172 46.8262 38.6931 47.84 38.6931C48.8538 38.6931 49.5297 38.0172 49.5297 37.0034C49.5297 34.131 48.5159 31.5965 46.8262 29.569C46.9952 28.8931 47.1641 28.2172 47.1641 27.5414C47.5021 26.1897 48.6848 25.1759 50.0365 25.1759C50.5434 25.1759 50.8814 25.3448 51.3883 25.5138C59.3297 29.9069 72.6779 41.2276 72.0021 67.4172C72.0021 68.9379 70.6503 70.1207 69.1296 69.9517Z" fill="#6067AB"/>
</svg>
