<svg width="71" height="80" viewBox="0 0 71 80" fill="none" xmlns="http://www.w3.org/2000/svg">
<path d="M12.0057 62.6665C10.9509 62.6665 9.91972 62.9793 9.04266 63.5653C8.1656 64.1514 7.48201 64.9843 7.07834 65.9589C6.67467 66.9334 6.56906 68.0058 6.77484 69.0403C6.98063 70.0749 7.48858 71.0252 8.23446 71.7711C8.98034 72.5169 9.93065 73.0249 10.9652 73.2307C11.9998 73.4365 13.0721 73.3309 14.0467 72.9272C15.0212 72.5235 15.8542 71.8399 16.4402 70.9629C17.0262 70.0858 17.339 69.0547 17.339 67.9998C17.339 66.5853 16.7771 65.2288 15.7769 64.2286C14.7767 63.2284 13.4202 62.6665 12.0057 62.6665ZM12.0057 70.6665C11.4783 70.6665 10.9627 70.5101 10.5242 70.2171C10.0856 69.9241 9.74385 69.5076 9.54202 69.0203C9.34019 68.5331 9.28738 67.9969 9.39027 67.4796C9.49316 66.9623 9.74714 66.4872 10.1201 66.1142C10.493 65.7413 10.9682 65.4873 11.4855 65.3844C12.0027 65.2815 12.5389 65.3343 13.0262 65.5362C13.5135 65.738 13.9299 66.0798 14.2229 66.5183C14.516 66.9568 14.6724 67.4724 14.6724 67.9998C14.6724 68.7071 14.3914 69.3854 13.8913 69.8855C13.3912 70.3856 12.7129 70.6665 12.0057 70.6665Z" fill="#6067AB"/>
<path d="M64.6723 57.3333H41.339V50.6C42.4478 50.4322 43.4601 49.8738 44.1936 49.0255C44.927 48.1771 45.3332 47.0947 45.339 45.9733V41.3333H57.339C59.8135 41.3305 62.1858 40.3463 63.9356 38.5965C65.6853 36.8468 66.6695 34.4745 66.6723 32V9.33333C66.6692 8.27344 66.2467 7.25786 65.4973 6.5084C64.7478 5.75894 63.7322 5.3365 62.6723 5.33333H61.339V4C61.339 3.64638 61.1985 3.30724 60.9485 3.05719C60.6984 2.80714 60.3593 2.66667 60.0057 2.66667H56.0057V1.33333C56.0057 0.979711 55.8652 0.640573 55.6152 0.390524C55.3651 0.140476 55.026 0 54.6724 0H52.0057C50.2376 0 48.5419 0.702379 47.2916 1.95262C46.0414 3.20286 45.339 4.89856 45.339 6.66667C45.339 8.43478 46.0414 10.1305 47.2916 11.3807C48.5419 12.631 50.2376 13.3333 52.0057 13.3333H54.6724C55.026 13.3333 55.3651 13.1929 55.6152 12.9428C55.8652 12.6928 56.0057 12.3536 56.0057 12V10.6667H60.0057C60.3593 10.6667 60.6984 10.5262 60.9485 10.2761C61.1985 10.0261 61.339 9.68695 61.339 9.33333V8H62.6723C63.026 8 63.3651 8.14048 63.6152 8.39052C63.8652 8.64057 64.0057 8.97971 64.0057 9.33333V32C64.0057 33.7681 63.3033 35.4638 62.0531 36.714C60.8028 37.9643 59.1071 38.6667 57.339 38.6667H45.339C45.3369 37.9601 45.0553 37.283 44.5556 36.7834C44.056 36.2837 43.3789 36.0021 42.6724 36H37.339C36.6324 36.0021 35.9554 36.2837 35.4557 36.7834C34.9561 37.283 34.6745 37.9601 34.6724 38.6667H24.0057C22.2376 38.6667 20.5419 37.9643 19.2916 36.714C18.0414 35.4638 17.339 33.7681 17.339 32V9.33333C17.339 8.97971 17.4795 8.64057 17.7295 8.39052C17.9796 8.14048 18.3187 8 18.6724 8V9.33333C18.6724 9.68695 18.8128 10.0261 19.0629 10.2761C19.3129 10.5262 19.6521 10.6667 20.0057 10.6667H24.0057V12C24.0057 12.3536 24.1462 12.6928 24.3962 12.9428C24.6463 13.1929 24.9854 13.3333 25.339 13.3333H28.0057C29.7738 13.3333 31.4695 12.631 32.7197 11.3807C33.97 10.1305 34.6724 8.43478 34.6724 6.66667C34.6724 4.89856 33.97 3.20286 32.7197 1.95262C31.4695 0.702379 29.7738 0 28.0057 0H25.339C24.9854 0 24.6463 0.140476 24.3962 0.390524C24.1462 0.640573 24.0057 0.979711 24.0057 1.33333V2.66667H20.0057C19.6521 2.66667 19.3129 2.80714 19.0629 3.05719C18.8128 3.30724 18.6724 3.64638 18.6724 4V5.33333C17.6125 5.3365 16.5969 5.75894 15.8474 6.5084C15.098 7.25786 14.6755 8.27344 14.6724 9.33333V32C14.6752 34.4745 15.6594 36.8468 17.4091 38.5965C19.1589 40.3463 21.5312 41.3305 24.0057 41.3333H34.6724V45.9733C34.6782 47.0947 35.0844 48.1771 35.8178 49.0255C36.5512 49.8738 37.5636 50.4322 38.6724 50.6V58.6667C38.6724 59.0203 38.8128 59.3594 39.0629 59.6095C39.3129 59.8595 39.6521 60 40.0057 60H64.6723C65.5564 60 66.4043 60.3512 67.0294 60.9763C67.6545 61.6014 68.0057 62.4493 68.0057 63.3333C68.0057 64.2174 67.6545 65.0652 67.0294 65.6903C66.4043 66.3155 65.5564 66.6667 64.6723 66.6667H23.9257C23.5849 63.6186 22.09 60.8168 19.748 58.8365C17.4059 56.8563 14.3946 55.8479 11.3323 56.0186C8.27004 56.1892 5.38935 57.5259 3.28185 59.7542C1.17434 61.9824 0 64.933 0 68C0 71.067 1.17434 74.0176 3.28185 76.2458C5.38935 78.474 8.27004 79.8107 11.3323 79.9814C14.3946 80.1521 17.4059 79.1437 19.748 77.1635C22.09 75.1832 23.5849 72.3813 23.9257 69.3333H64.6723C66.2636 69.3333 67.7898 68.7012 68.915 67.576C70.0402 66.4507 70.6723 64.9246 70.6723 63.3333C70.6723 61.742 70.0402 60.2159 68.915 59.0907C67.7898 57.9655 66.2636 57.3333 64.6723 57.3333ZM53.339 10.6667H52.0057C50.9448 10.6667 49.9274 10.2452 49.1773 9.49509C48.4271 8.74495 48.0057 7.72753 48.0057 6.66667C48.0057 5.6058 48.4271 4.58838 49.1773 3.83824C49.9274 3.08809 50.9448 2.66667 52.0057 2.66667H53.339V10.6667ZM58.6723 8H56.0057V5.33333H58.6723V8ZM26.6724 2.66667H28.0057C29.0666 2.66667 30.084 3.08809 30.8341 3.83824C31.5843 4.58838 32.0057 5.6058 32.0057 6.66667C32.0057 7.72753 31.5843 8.74495 30.8341 9.49509C30.084 10.2452 29.0666 10.6667 28.0057 10.6667H26.6724V2.66667ZM21.339 5.33333H24.0057V8H21.339V5.33333ZM39.3657 48C39.0995 48.0002 38.8359 47.9479 38.5899 47.8461C38.3439 47.7443 38.1205 47.595 37.9322 47.4068C37.744 47.2186 37.5947 46.9951 37.4929 46.7491C37.3911 46.5031 37.3388 46.2395 37.339 45.9733V38.6667H42.6724V45.9733C42.6725 46.2395 42.6202 46.5031 42.5184 46.7491C42.4166 46.9951 42.2674 47.2186 42.0791 47.4068C41.8909 47.595 41.6674 47.7443 41.4215 47.8461C41.1755 47.9479 40.9119 48.0002 40.6457 48H39.3657ZM12.0057 77.3333C10.1597 77.3333 8.35523 76.7859 6.82037 75.7604C5.28551 74.7348 4.08924 73.2771 3.38282 71.5717C2.6764 69.8663 2.49157 67.9896 2.8517 66.1791C3.21183 64.3687 4.10074 62.7056 5.40603 61.4003C6.71132 60.095 8.37436 59.2061 10.1849 58.846C11.9953 58.4859 13.872 58.6707 15.5774 59.3771C17.2828 60.0835 18.7405 61.2798 19.7661 62.8147C20.7916 64.3495 21.339 66.154 21.339 68C21.3362 70.4745 20.352 72.8468 18.6022 74.5965C16.8525 76.3463 14.4802 77.3305 12.0057 77.3333Z" fill="#6067AB"/>
</svg>
