<svg width="93" height="70" viewBox="0 0 93 70" fill="none" xmlns="http://www.w3.org/2000/svg">
<path d="M91.1591 66.4943H53.4729C60.7316 59.2127 67.977 51.7485 73.528 44.3501C80.755 34.718 84.2681 26.2202 84.2681 18.3711C84.2681 8.24138 76.0199 0.000194265 65.8818 0.000194265C57.5017 0.000194265 53.0162 3.94789 49.244 10.5064C45.4695 3.94808 40.9834 0.000194372 32.6079 0C22.4696 0 14.2216 8.24118 14.2216 18.3709C14.2216 22.3437 15.1233 26.483 16.9492 30.8511H10.3863C9.42005 30.8511 8.63692 31.6343 8.63692 32.6005C8.63692 33.5667 9.42005 34.3498 10.3863 34.3498H18.5851C20.2349 37.5513 22.3555 40.8766 24.9618 44.3505C30.5129 51.7487 37.7583 59.2127 45.0168 66.4943H1.74935C0.783125 66.4943 0 67.2774 0 68.2437C0 69.2099 0.783125 69.993 1.74935 69.993H49.0976C49.1466 69.9971 49.1958 70 49.2449 70C49.2941 70 49.3431 69.9971 49.3923 69.993H91.1593C92.1256 69.993 92.9087 69.2099 92.9087 68.2437C92.9087 67.2774 92.1254 66.4943 91.1591 66.4943ZM17.7201 18.3711C17.7201 10.1705 24.3986 3.49889 32.6077 3.49889C39.5734 3.49909 43.3767 6.40184 47.6799 15.0022C47.9763 15.5947 48.5821 15.9688 49.2448 15.9688C49.9072 15.9688 50.5128 15.5943 50.8091 15.0016C55.1084 6.40164 58.9118 3.49909 65.8816 3.49909C74.0906 3.49909 80.7692 10.1707 80.7692 18.3713C80.7692 22.4892 79.6523 26.6566 77.7175 30.8513H50.7505C50.6899 30.8511 50.6295 30.854 50.5694 30.8601C50.5441 30.8626 50.5194 30.8675 50.4946 30.871C50.4639 30.8754 50.4331 30.8789 50.4028 30.8849C50.3663 30.8921 50.3307 30.9021 50.2949 30.9114C50.2765 30.9162 50.258 30.9201 50.2397 30.9256C50.2028 30.9366 50.1672 30.9501 50.1313 30.9635C50.1142 30.9699 50.0967 30.9753 50.0798 30.9823C50.0477 30.9955 50.0166 31.0107 49.9855 31.0257C49.9651 31.0356 49.9443 31.0445 49.9241 31.0552C49.8986 31.0688 49.8743 31.084 49.8496 31.0988C49.825 31.1135 49.7999 31.1275 49.776 31.1435C49.7567 31.1563 49.7387 31.1703 49.7202 31.1837C49.6924 31.2037 49.6646 31.2233 49.638 31.2451C49.623 31.2574 49.6092 31.2706 49.5948 31.2832C49.5666 31.3077 49.5384 31.3322 49.5118 31.3586C49.4976 31.3726 49.4848 31.388 49.4712 31.4024C49.4465 31.4286 49.4214 31.4547 49.3981 31.4826C49.3773 31.5077 49.3587 31.5343 49.3392 31.5606C49.3252 31.5796 49.3103 31.5975 49.2968 31.6171C49.2626 31.6673 49.2311 31.7194 49.2022 31.7732L42.9475 43.3112L36.6955 31.7726C36.6667 31.7192 36.6353 31.6673 36.6012 31.6173C36.5878 31.5975 36.5729 31.5796 36.5589 31.5606C36.5394 31.5343 36.5208 31.5077 36.5 31.4828C36.4768 31.4548 36.452 31.429 36.4273 31.4029C36.4135 31.3884 36.4005 31.3728 36.3863 31.3588C36.3598 31.3326 36.3318 31.3083 36.3038 31.284C36.2891 31.2712 36.2751 31.2576 36.2599 31.2453C36.2337 31.2239 36.2063 31.2045 36.1789 31.1847C36.1598 31.1709 36.1413 31.1565 36.1217 31.1435C36.0982 31.1279 36.0737 31.1139 36.0494 31.0995C36.0243 31.0846 35.9995 31.069 35.9734 31.0552C35.9536 31.0447 35.9332 31.0358 35.913 31.0261C35.8817 31.0109 35.8504 30.9955 35.8179 30.9823C35.8008 30.9753 35.7833 30.9697 35.766 30.9633C35.7304 30.9499 35.6949 30.9366 35.6581 30.9256C35.6393 30.9199 35.62 30.916 35.6012 30.911C35.566 30.9017 35.531 30.8919 35.4951 30.8849C35.4624 30.8783 35.4292 30.8745 35.3961 30.8698C35.3736 30.8667 35.3514 30.8622 35.3287 30.8599C35.268 30.8537 35.2068 30.8507 35.1454 30.8511H20.7712C18.837 26.6566 17.7201 22.489 17.7201 18.3711ZM22.567 34.35H34.1127L41.4092 47.8163C41.4131 47.8233 41.418 47.8293 41.4219 47.8363C41.453 47.8921 41.4876 47.9461 41.5249 47.9986C41.535 48.0126 41.5447 48.0268 41.555 48.0404C41.5983 48.0976 41.6444 48.1534 41.6951 48.2052C41.6971 48.2072 41.6992 48.2089 41.7012 48.2109C41.7478 48.2581 41.7982 48.3024 41.8508 48.3446C41.8691 48.3592 41.8878 48.3728 41.9064 48.3868C41.9449 48.4152 41.9848 48.4422 42.026 48.4677C42.0466 48.4803 42.0666 48.4935 42.0876 48.5052C42.0963 48.5102 42.1043 48.516 42.1132 48.5209C42.1408 48.5359 42.1696 48.5466 42.1976 48.56C42.2293 48.5749 42.2604 48.5911 42.2926 48.6041C42.3377 48.6224 42.3832 48.6366 42.4291 48.6507C42.4538 48.6583 42.4779 48.6677 42.503 48.6743C42.5601 48.6892 42.6176 48.6999 42.6754 48.7089C42.6911 48.7114 42.7065 48.7155 42.7222 48.7176C42.7967 48.7271 42.8711 48.7326 42.9453 48.7326C42.9459 48.7326 42.9463 48.7324 42.9469 48.7324C42.9475 48.7324 42.9479 48.7326 42.9485 48.7326C43.0227 48.7326 43.0971 48.7271 43.1714 48.7176C43.1875 48.7155 43.2031 48.7114 43.219 48.7089C43.2766 48.6997 43.3337 48.6892 43.3907 48.6743C43.4157 48.6677 43.44 48.6583 43.4649 48.6506C43.5106 48.6364 43.5561 48.6222 43.601 48.6039C43.6332 48.5909 43.6643 48.5749 43.6958 48.56C43.724 48.5466 43.7526 48.5359 43.7804 48.5209C43.7893 48.516 43.7975 48.5102 43.8062 48.5052C43.827 48.4935 43.8472 48.4805 43.8674 48.4678C43.9088 48.4422 43.9489 48.4152 43.9874 48.3868C44.006 48.373 44.0247 48.3594 44.0428 48.3448C44.0954 48.3026 44.1458 48.2583 44.1924 48.2111C44.1944 48.2091 44.1965 48.2074 44.1985 48.2054C44.2492 48.1533 44.2953 48.0978 44.3386 48.0406C44.3489 48.027 44.3586 48.013 44.3687 47.999C44.4062 47.9465 44.4408 47.8923 44.4719 47.8365C44.4758 47.8297 44.4807 47.8237 44.4844 47.8169L51.7846 34.3502H75.9217C70.0406 44.8107 59.6192 55.4007 49.2442 65.7773C38.8694 55.4003 28.4479 44.8103 22.567 34.35Z" fill="#6067AB"/>
</svg>
