<svg width="107" height="60" viewBox="0 0 107 60" fill="none" xmlns="http://www.w3.org/2000/svg">
<path fill-rule="evenodd" clip-rule="evenodd" d="M48.5852 3.90667C48.5929 3.99681 48.5967 4.10229 48.5967 4.21928C48.5967 4.33627 48.5948 4.45709 48.591 4.57983C48.5871 4.70257 48.5795 4.82532 48.5699 4.94422C48.5603 5.06505 48.5488 5.17245 48.5316 5.26834L48.2996 5.2856L47.9066 4.34394L45.0734 4.55682L44.8261 5.54643L44.5941 5.56369C44.5635 5.46588 44.5328 5.35656 44.504 5.23574C44.4753 5.11491 44.4485 4.99217 44.4254 4.86943C44.4087 4.78 44.394 4.6926 44.382 4.60724L42.5561 4.83297L42.5293 4.60858C42.6002 4.56447 42.6769 4.52036 42.7593 4.47817C42.8418 4.43598 42.9223 4.40146 42.9989 4.37652L42.5408 3.48089L41.2315 3.6439L40.9996 4.62584C41.1836 4.62776 41.3619 4.66228 41.5344 4.73324L41.5593 4.95763L40.1369 5.13364L39.1383 5.30862L38.8757 5.18588C38.7607 5.08615 38.6399 4.973 38.5115 4.84834C38.383 4.72368 38.2546 4.59327 38.1262 4.4571C37.9977 4.32093 37.8712 4.18285 37.7466 4.04476C37.622 3.90476 37.5031 3.76859 37.392 3.63626L37.1408 3.68037L37.4092 5.2089C37.4974 5.2089 37.5798 5.21848 37.6565 5.23766C37.7332 5.25684 37.7984 5.27986 37.8559 5.30479L37.8942 5.52726L36.121 5.83795L36.0827 5.61548C36.1536 5.5637 36.2284 5.51383 36.305 5.47164C36.3817 5.42753 36.4584 5.39109 36.5332 5.36232L35.9523 2.04828C35.8603 2.05211 35.7702 2.04636 35.6801 2.0291C35.59 2.01184 35.5114 1.99074 35.4424 1.96197L35.4041 1.7395L37.1773 1.42881L37.2156 1.65128C37.1696 1.69156 37.114 1.73375 37.0469 1.77786C36.9798 1.82197 36.907 1.86033 36.8284 1.89485L37.0891 3.3831L37.4207 3.24118L38.1166 1.67046C38.0361 1.66854 37.9536 1.65704 37.8731 1.63786C37.7907 1.61868 37.7198 1.59758 37.6603 1.57649L37.6201 1.3521L39.1881 1.07784L39.2265 1.30031C39.1671 1.35593 39.098 1.40388 39.0175 1.44799C38.937 1.4921 38.8623 1.52662 38.7932 1.54964L37.9287 3.15679C38.0399 3.26611 38.1702 3.38885 38.3198 3.52502C38.6413 3.82036 38.9692 4.10875 39.3032 4.38997C39.4776 4.53765 39.6482 4.67957 39.8111 4.80998L40.0761 4.91308C40.1335 4.86531 40.1966 4.82326 40.2654 4.78503C40.3344 4.74667 40.4034 4.71407 40.4724 4.69105L41.5229 0.696165L41.96 0.642465L43.9114 4.26529C43.9919 4.27104 44.0744 4.28447 44.1549 4.30364C44.2284 4.32076 44.2944 4.344 44.3527 4.37061C44.3468 4.31589 44.3424 4.26683 44.3392 4.22311L44.8548 4.18475C44.9526 4.01023 45.0389 3.79735 45.1136 3.54611C45.1884 3.29487 45.2478 3.02062 45.29 2.72527C45.3341 2.42992 45.359 2.11923 45.3686 1.79511C45.3782 1.47099 45.3705 1.14688 45.3456 0.822759C45.2421 0.811252 45.1328 0.788238 45.0197 0.757552C44.9066 0.726866 44.7993 0.686591 44.7015 0.638645L44.6842 0.414256L48.0926 0.159182L48.1098 0.383571C47.9776 0.469874 47.8204 0.538917 47.6363 0.592616L47.8875 3.96037L48.5852 3.90667ZM47.0037 4.02557L46.7507 0.646316L45.7961 0.717277C45.8114 1.17756 45.8076 1.5899 45.7884 1.95813C45.7673 2.32636 45.7366 2.65047 45.6906 2.93048C45.6465 3.2124 45.5929 3.45405 45.5334 3.65543C45.4721 3.8568 45.4127 4.02174 45.3494 4.14832L47.0037 4.02557ZM51.821 0.0345214C51.8191 0.212882 51.8095 0.396996 51.7961 0.588781C51.7827 0.778648 51.7616 0.958926 51.7348 1.12578L51.4913 1.13345L51.1961 0.441106L50.0862 0.475627L50.1322 1.93128L50.8568 1.90826L51.1041 1.44223L51.2939 1.43647C51.3188 1.63018 51.336 1.84497 51.3437 2.08279C51.3514 2.3206 51.3475 2.54307 51.3341 2.7502L51.1443 2.75595L50.8683 2.29375L50.1437 2.31677L50.1916 3.86256L51.3495 3.82612L51.6408 3.06089L51.8843 3.05322C51.9015 3.12802 51.9207 3.2124 51.9399 3.30638C51.9591 3.40035 51.9744 3.49816 51.9878 3.59981C52.0012 3.69954 52.0127 3.8031 52.0204 3.90475C52.03 4.00831 52.0357 4.10229 52.0376 4.19051L48.8248 4.29024L48.8172 4.06393C48.8843 4.02557 48.9571 3.99105 49.0395 3.95653C49.122 3.92201 49.2082 3.89516 49.2983 3.8779L49.1948 0.513985C49.1143 0.50056 49.03 0.481381 48.9399 0.452613C48.8577 0.428527 48.7781 0.396408 48.7022 0.356721L48.6945 0.130414L51.821 0.0345214ZM57.7099 4.25572L55.9329 4.22311L55.9367 3.99681C56.0172 3.95845 56.0939 3.92584 56.1706 3.89899C56.2473 3.87214 56.3278 3.85105 56.416 3.83187L56.46 1.34633L56.5022 0.65207H56.4543L56.2473 1.28496L55.0473 4.20777L54.7731 4.20202L53.6843 1.26386L53.483 0.563849H53.4294L53.4236 1.31948L53.3795 3.75707C53.4543 3.77433 53.5367 3.80118 53.6268 3.83954C53.7169 3.87598 53.8012 3.91817 53.8798 3.96228L53.876 4.18859L52.4268 4.16174L52.4306 3.93543C52.4939 3.90475 52.5725 3.86831 52.6664 3.82612C52.7603 3.78392 52.8485 3.75516 52.9329 3.74173L52.9923 0.406585C52.9137 0.389324 52.8293 0.36631 52.7412 0.337542C52.653 0.308774 52.5744 0.270417 52.5092 0.226307L52.5131 0L54.1233 0.0287677L54.9897 2.46444L55.1527 3.03788H55.1584L55.3463 2.45869L56.3163 0.0671247L57.7904 0.0939747L57.7866 0.320281C57.7176 0.358638 57.6447 0.391242 57.568 0.42001C57.4894 0.448777 57.4109 0.469874 57.3323 0.483299L57.2728 3.85297C57.3553 3.87023 57.4358 3.89516 57.5124 3.92776C57.5891 3.96037 57.6562 3.99297 57.7156 4.02749L57.7099 4.25572ZM59.7514 4.41106L57.9668 4.28065L57.984 4.05626C58.0626 4.02174 58.1431 3.99297 58.2294 3.96612C58.3137 3.94119 58.4 3.92584 58.4824 3.92009L58.7297 0.563849C58.653 0.538917 58.5706 0.510149 58.4863 0.477545C58.4019 0.444942 58.3252 0.404667 58.2562 0.356721L58.2735 0.132332L60.0582 0.262746L60.0409 0.487135C59.9796 0.51782 59.9086 0.546588 59.832 0.573438C59.7553 0.600288 59.6709 0.617549 59.5847 0.627138L59.4198 2.88061L59.3259 3.33898L59.6518 2.87486L61.2984 0.897555L61.308 0.755634C61.1259 0.698098 60.9745 0.629056 60.8518 0.548506L60.869 0.324117L62.6537 0.454531L62.6364 0.67892C62.5655 0.717277 62.4869 0.746045 62.4007 0.765223C62.3144 0.784402 62.2262 0.801662 62.138 0.815087L61.8908 4.17133C61.9809 4.19434 62.0652 4.22311 62.1438 4.25763C62.2224 4.29407 62.2952 4.33435 62.3642 4.37846L62.347 4.60285L60.5623 4.47243L60.5796 4.24804C60.6371 4.22503 60.7061 4.19818 60.7847 4.17133C60.8633 4.14256 60.9476 4.12338 61.0358 4.10996L61.2007 1.86224L61.2946 1.39811L60.9936 1.84689L59.3201 3.85297L59.3105 3.98338C59.4006 4.01023 59.4831 4.04092 59.5597 4.07927C59.6364 4.11763 59.7054 4.15407 59.7668 4.19051L59.7514 4.41106ZM65.3432 0.778648L66.9227 0.974269L66.894 1.19866C66.8211 1.23318 66.7406 1.26003 66.6505 1.27921C66.5604 1.29839 66.4799 1.30798 66.4071 1.31181L65.1093 2.59485C65.2976 2.93769 65.4951 3.27535 65.7016 3.60748L65.7282 3.65016L65.7287 3.65093C65.8369 3.82494 65.947 4.00197 66.062 4.179C66.1866 4.3727 66.3074 4.55682 66.4243 4.73134L66.6512 4.91026L66.6523 4.90393C66.7213 4.87516 66.7941 4.85407 66.8727 4.8368C66.9494 4.81954 67.0261 4.80996 67.0989 4.80612L69.2727 1.29453L69.706 1.37125L70.5111 5.40641C70.5859 5.43517 70.6606 5.47161 70.7335 5.51572C70.8063 5.55792 70.8696 5.60586 70.9194 5.65381L70.8811 5.87628L69.0485 5.55408L69.0868 5.33161C69.1673 5.3086 69.2536 5.29134 69.3437 5.27408C69.4357 5.25873 69.52 5.24914 69.6025 5.24723L69.4261 4.2557L68.1264 4.02747L67.6184 4.89818C67.7948 4.95379 67.9539 5.0401 68.0977 5.15709L68.0593 5.37956L66.6627 5.13493L66.662 5.13985L65.6365 5.01135L65.4218 4.81765C65.3413 4.68723 65.2588 4.54531 65.1726 4.38805C65.0863 4.23078 65.002 4.06968 64.9195 3.90091C64.8371 3.73214 64.7566 3.56337 64.6761 3.3946C64.5975 3.22583 64.5246 3.06089 64.4556 2.89979L64.2026 2.86911L64.0109 4.40914C64.0952 4.43599 64.1719 4.4686 64.2371 4.50887C64.3042 4.54915 64.3598 4.58942 64.4077 4.63161L64.379 4.856L62.5924 4.63353L62.6211 4.40914C62.7055 4.38038 62.7898 4.35544 62.8761 4.33627C62.9623 4.31709 63.0448 4.30366 63.1253 4.29791L63.5393 0.958926C63.4509 0.936071 63.3654 0.903258 63.2844 0.861116C63.2039 0.818923 63.1349 0.774813 63.0773 0.726866L63.1061 0.502477L64.8927 0.724948L64.8639 0.949337C64.8083 0.974269 64.7432 0.997284 64.6665 1.0203C64.5898 1.04331 64.5093 1.05865 64.425 1.06824L64.239 2.56609L64.5975 2.52581L65.7227 1.22743C65.6461 1.20249 65.5713 1.16797 65.4985 1.12386C65.4256 1.08167 65.3643 1.03948 65.3125 1.00112L65.3432 0.778648ZM42.3683 3.11649L41.3235 3.24499L41.5938 2.08085L41.659 1.54577L41.6705 1.54386L41.8449 2.03674L42.3683 3.11649ZM27.5618 8.11444L26.1902 8.55306L25.2653 8.91801L24.9835 8.85089C24.8512 8.77609 24.7094 8.68979 24.5599 8.59389C24.4084 8.498 24.257 8.39636 24.1036 8.28896C23.9503 8.18156 23.7988 8.07224 23.6474 7.961C23.4979 7.84977 23.3541 7.74045 23.218 7.63305L22.9803 7.72703L23.5516 9.16925C23.6378 9.15199 23.7202 9.14432 23.7988 9.14815C23.8774 9.15199 23.9464 9.15966 24.0078 9.175L24.0902 9.38597L22.4167 10.0495L22.3343 9.83858C22.3937 9.77337 22.457 9.71008 22.5222 9.65255C22.5892 9.59501 22.6563 9.54323 22.7234 9.49912L21.4851 6.3711C21.395 6.39412 21.3068 6.40563 21.2148 6.40754C21.1247 6.40946 21.0423 6.40371 20.9675 6.39028L20.8851 6.17932L22.5586 5.51574L22.641 5.72671C22.6046 5.77465 22.5586 5.82835 22.5011 5.88397C22.4455 5.94151 22.3803 5.99329 22.3113 6.04315L22.8672 7.44702L23.1624 7.23989L23.5266 5.56177C23.4461 5.57711 23.3656 5.58287 23.2813 5.57903C23.1969 5.57711 23.1241 5.56944 23.0608 5.56177L22.9784 5.34889L24.4602 4.76203L24.5426 4.97299C24.4966 5.0382 24.4372 5.10149 24.3682 5.16094C24.2972 5.22039 24.2321 5.26834 24.1707 5.3067L23.6474 7.05386C23.7797 7.13825 23.9311 7.23222 24.1036 7.33578C24.2762 7.43935 24.4602 7.54675 24.6519 7.65606C24.8436 7.76538 25.041 7.8747 25.2423 7.98594C25.4436 8.09525 25.6372 8.19882 25.8251 8.29471L26.0997 8.34131C26.1467 8.28573 26.2007 8.23376 26.2583 8.1854C26.3197 8.13554 26.381 8.09143 26.4443 8.05499L26.7356 3.93544L27.1535 3.80119L29.7433 6.99825C29.8238 6.98866 29.9063 6.98674 29.9906 6.99058C30.075 6.99442 30.1516 7.00592 30.2207 7.02702L30.2897 7.24182L28.5184 7.8095L28.4494 7.5947C28.5107 7.53717 28.5778 7.48155 28.6507 7.42401C28.7235 7.36648 28.7964 7.31853 28.8673 7.28017L28.25 6.48427L26.9944 6.88702L26.9484 7.89389C27.1286 7.86128 27.3107 7.8632 27.4928 7.89964L27.5618 8.11444ZM27.0117 6.47468L28.0142 6.1544L27.3011 5.19163L27.0385 4.73902L27.027 4.74286L27.0615 5.28177L27.0117 6.47468ZM33.2015 6.50728L31.7715 6.83907L31.7197 6.61852C31.7734 6.56482 31.8309 6.51687 31.8961 6.47084C31.9612 6.42481 32.0264 6.38646 32.0916 6.35577L32.7204 2.27267L33.1478 2.17294L35.4673 5.57137C35.5479 5.56945 35.6303 5.57329 35.7146 5.58479C35.799 5.5963 35.8737 5.61356 35.9408 5.63849L35.9926 5.85905L34.1811 6.27906L34.1293 6.0585C34.1945 6.00672 34.2654 5.95494 34.344 5.90508C34.4226 5.85521 34.4974 5.81302 34.5702 5.7785L34.022 4.93464L32.7376 5.23191L32.6092 6.23111C32.7913 6.21385 32.9734 6.23111 33.1517 6.28289L33.2015 6.50728ZM32.7874 4.82724L33.813 4.58943L33.1804 3.57105L32.9542 3.09926L32.9427 3.10118L32.9331 3.64009L32.7874 4.82724ZM5.79868 17.2261C5.90411 17.1744 6.00379 17.1111 6.10156 17.0324C6.41402 17.3124 6.67664 17.5675 6.88943 17.7996C7.10604 18.0259 7.28623 18.2311 7.43001 18.4152C7.57569 18.5974 7.68879 18.7604 7.77122 18.9023C7.85365 19.0443 7.91883 19.1708 7.96675 19.284L7.36483 19.6944L7.42425 19.9648C7.48368 20.0128 7.55269 20.055 7.63512 20.0953C7.71755 20.1336 7.79998 20.1662 7.88624 20.1892L7.90699 20.1947L7.63714 20.335C7.43011 20.3714 7.21158 20.4059 6.98538 20.4386C6.75918 20.4731 6.53489 20.5038 6.31636 20.5325C6.09591 20.5613 5.88696 20.5862 5.68568 20.6073C5.4844 20.6284 5.30613 20.6457 5.15086 20.6572L4.51635 18.9465C4.54318 18.8793 4.5681 18.8007 4.58727 18.7106C4.60644 18.6204 4.61603 18.536 4.61411 18.4555L4.4205 18.3385L3.59238 19.6983L3.78407 19.8133C3.83966 19.7826 3.90292 19.7424 3.97193 19.6944C4.04094 19.6465 4.10228 19.5928 4.15788 19.5333L4.87673 21.0964L4.76555 21.4397L3.47736 20.6534C3.50228 20.5709 3.52145 20.4903 3.53295 20.4117C3.54254 20.3331 3.54829 20.264 3.54829 20.2027L3.35467 20.0857L2.41729 21.6238L2.6109 21.7408C2.67799 21.7082 2.747 21.6621 2.81793 21.6065C2.88886 21.5509 2.95403 21.4857 3.01154 21.4147L5.88313 23.1657C5.85438 23.2425 5.83137 23.323 5.81412 23.4093C5.79495 23.4956 5.78345 23.5838 5.77578 23.6721L5.96939 23.789L6.90678 22.2509L6.71317 22.1339C6.65566 22.1608 6.59432 22.1953 6.53106 22.2394C6.4678 22.2854 6.40646 22.3411 6.34703 22.4063L5.02242 21.5989L5.15469 21.3802C5.32721 21.3841 5.50932 21.3841 5.69527 21.3821C5.88043 21.3802 6.06372 21.3746 6.24883 21.369L6.25694 21.3687C6.4448 21.363 6.62691 21.3534 6.80518 21.338C6.97044 21.3256 7.13535 21.309 7.29976 21.2882L7.56621 21.1712L8.10487 20.287L7.9826 20.2123C8.03321 20.2226 8.08254 20.2298 8.12969 20.2333C8.20637 20.2391 8.26963 20.2295 8.31947 20.2046C8.3904 20.1259 8.44407 20.0243 8.47858 19.8996C8.51308 19.775 8.51883 19.6503 8.492 19.5256C8.46516 19.3895 8.42107 19.2418 8.35973 19.0826C8.29838 18.9234 8.19103 18.7317 8.0396 18.5092C7.88816 18.2867 7.67729 18.024 7.40892 17.7229C7.14055 17.4198 6.78591 17.0631 6.34693 16.6508L6.99677 15.9316L9.50223 18.1947C9.46389 18.2675 9.42938 18.3423 9.40063 18.419C9.36996 18.4958 9.34696 18.5706 9.32779 18.6454L9.49456 18.7969L10.7214 17.4371L10.5546 17.2856C10.4799 17.3144 10.4051 17.3489 10.3265 17.3872C10.2479 17.4256 10.1732 17.4735 10.1003 17.5311L7.60445 15.2757C7.65621 15.1932 7.69838 15.1108 7.73288 15.0264C7.76739 14.942 7.79039 14.8653 7.80381 14.7981L7.63704 14.6466L5.34053 17.1916L5.5073 17.3431C5.59548 17.3163 5.69325 17.2779 5.79868 17.2261ZM10.6965 17.1513L10.8383 17.3259L12.2262 16.1963L12.0844 16.0179C12.0153 16.0332 11.9387 16.0543 11.8582 16.0793C11.7757 16.1042 11.6933 16.1387 11.6109 16.1809L11.5284 16.0793L11.3713 13.4729L11.2831 12.9397L11.5323 13.3425L12.9527 15.0916C12.8991 15.1625 12.8511 15.2354 12.8128 15.3102C12.7745 15.385 12.7419 15.4521 12.717 15.5077L12.8588 15.6823L14.2467 14.5527L14.1048 14.3781C14.0243 14.3916 13.9438 14.4127 13.8614 14.4414C13.7789 14.4683 13.6984 14.5047 13.6179 14.5507L11.4959 11.9386C11.5514 11.8677 11.6032 11.7948 11.653 11.7219C11.7029 11.649 11.7393 11.5742 11.7642 11.4975L11.6224 11.323L10.2345 12.4526L10.3764 12.6271C10.5201 12.6022 10.6773 12.5485 10.8498 12.4641L10.9399 12.5754L11.0971 15.1453L11.1776 15.7053L10.9323 15.3083L9.50798 13.5554C9.56549 13.4883 9.61341 13.4192 9.65175 13.3463C9.69009 13.2754 9.72268 13.2063 9.74568 13.1411L9.60383 12.9666L8.21595 14.0962L8.35781 14.2707C8.44024 14.2592 8.52267 14.2362 8.60701 14.2017C8.68944 14.1672 8.76804 14.1326 8.8428 14.0981L10.9649 16.7083C10.9093 16.7716 10.8575 16.8407 10.8134 16.9174C10.7693 16.996 10.7291 17.0727 10.6965 17.1513ZM14.4058 14.4568L15.9336 13.5036L15.8109 13.308C15.7304 13.3061 15.6537 13.3118 15.5828 13.3233C15.5119 13.3367 15.4371 13.3559 15.3623 13.3847L14.5476 12.0786L15.8838 11.2444L16.6985 12.5504C16.6409 12.606 16.5892 12.6655 16.5451 12.7307C16.501 12.7959 16.4646 12.8592 16.432 12.9206L16.5509 13.1124L18.0787 12.1592L17.9598 11.9674C17.887 11.9712 17.8045 11.9827 17.7164 12C17.6263 12.0173 17.54 12.0441 17.4537 12.0786L15.6748 9.22295C15.7361 9.16733 15.7975 9.10213 15.8569 9.03308C15.9163 8.96404 15.9623 8.89308 15.9969 8.8202L15.878 8.62842L14.3502 9.58159L14.469 9.77337C14.5361 9.77337 14.6071 9.76954 14.6818 9.75995C14.7585 9.75036 14.8371 9.72926 14.9195 9.69666L15.6806 10.9183L14.3444 11.7526L13.5834 10.5309C13.6409 10.4811 13.6927 10.4235 13.7387 10.3583C13.7847 10.2931 13.823 10.2279 13.8518 10.1627L13.7329 9.97091L12.2051 10.9241L12.324 11.1159C12.3911 11.1178 12.4697 11.1082 12.5598 11.089C12.6518 11.0698 12.7419 11.0411 12.8301 11.0046L14.609 13.8603C14.5496 13.9159 14.492 13.9792 14.4326 14.054C14.3732 14.1288 14.3253 14.1998 14.2869 14.265L14.4058 14.4568ZM18.2665 12.0671L19.871 11.277L19.7713 11.0737C19.7004 11.0737 19.6218 11.0775 19.5375 11.0833C19.4531 11.0909 19.3649 11.1044 19.2748 11.1274L19.2173 11.0104L19.6448 8.43471L19.6774 7.8958L19.8308 8.34266L20.8257 10.3641C20.7566 10.4197 20.6934 10.4791 20.6397 10.5443L20.6282 10.5583C20.5794 10.6175 20.5373 10.6688 20.5017 10.715L20.6033 10.9164L22.2078 10.1263L22.1081 9.92297C22.0276 9.91913 21.9432 9.92105 21.857 9.93064C21.7707 9.94023 21.6825 9.95749 21.5943 9.98434L20.1087 6.96564C20.1777 6.9081 20.2448 6.85057 20.31 6.7892C20.3752 6.72974 20.4288 6.66454 20.4691 6.59549L20.3694 6.3922L18.7649 7.18236L18.8646 7.38565C19.0084 7.39524 19.1752 7.37798 19.3611 7.33387L19.4244 7.46236L19.0045 10.0016L18.9585 10.5674L18.8071 10.1243L17.8103 8.09717C17.8831 8.04347 17.9445 7.98594 17.9981 7.92456C18.0518 7.86319 18.0959 7.80182 18.1343 7.74429L18.0346 7.54099L16.4301 8.33115L16.5298 8.53444C16.6122 8.54211 16.6985 8.53828 16.7886 8.52293C16.8787 8.50951 16.963 8.49225 17.0435 8.47499L18.5291 11.4937C18.4601 11.5416 18.395 11.5972 18.3336 11.6625C18.2723 11.7277 18.2167 11.7948 18.1668 11.8638L18.2665 12.0671ZM101.315 26.2247C101.679 27.4234 101.897 28.6489 101.953 29.8936H89.2666C89.1171 26.359 88.1739 22.9835 86.579 19.8805C89.027 18.8793 91.289 17.7708 93.3401 16.5626L91.9561 15.4847C90.0966 16.5933 88.0513 17.6193 85.8448 18.5475C83.3241 14.2727 79.5342 10.577 74.8684 7.76538L67.8504 6.24453C68.7303 6.56864 69.5929 6.91769 70.4326 7.29551C68.6498 8.06648 66.6658 8.71472 64.5149 9.22295C63.428 7.65798 62.2184 6.31932 60.9168 5.24532L58.6433 5.17053C60.336 6.17932 61.8926 7.65031 63.267 9.49912C62.853 9.58351 62.4312 9.66214 62.0076 9.73693V10.9087C62.6651 10.7726 63.3169 10.6287 63.9494 10.4676C66.1884 13.845 67.8466 18.2752 68.6594 23.2885C66.499 23.6318 64.2753 23.9003 62.0076 24.0959V25.4173C64.3405 25.2236 66.6293 24.9589 68.8511 24.6195C69.0696 26.3225 69.1923 28.085 69.2038 29.8916H37.4074C37.4208 28.085 37.5415 26.3225 37.7601 24.6195C39.9818 24.9589 42.2687 25.2236 44.6036 25.4173V24.0959C42.332 23.9003 40.1103 23.6318 37.9537 23.2885C38.7626 18.2752 40.4227 13.845 42.6617 10.4676C43.2981 10.6287 43.948 10.7726 44.6036 10.9087V9.73693C44.1799 9.66214 43.7582 9.58351 43.3442 9.49912C44.6879 7.68675 46.2119 6.23877 47.8643 5.23382L45.564 5.35464C44.3103 6.40754 43.1448 7.71168 42.0943 9.22487C39.9435 8.71664 37.9556 8.0684 36.1767 7.29743C36.7211 7.05194 37.277 6.81988 37.8368 6.59933L31.7888 7.74045C27.1018 10.5539 23.2929 14.2592 20.7644 18.5495C18.719 17.6864 16.8136 16.7409 15.0653 15.7245L13.7311 16.8311C15.6615 17.9358 17.7682 18.9561 20.0302 19.8824C18.4353 22.9855 17.4941 26.3609 17.3446 29.8955H4.65819C4.71378 28.6374 4.93423 27.3984 5.30612 26.1902L0.971893 24.9302C0.335466 26.7483 0 28.6259 0 30.5456C0 46.8128 23.866 60 53.3065 60C82.7432 60 106.609 46.8128 106.609 30.5456C106.609 28.8081 106.335 27.1031 105.814 25.4499L101.315 26.2247ZM87.779 29.8936H70.3195C70.3041 28.0275 70.1795 26.2055 69.9552 24.4449C75.4876 23.532 80.6135 22.1704 85.1567 20.4405C86.7075 23.369 87.6257 26.5546 87.779 29.8936ZM65.1303 10.1512C67.4345 9.4972 69.5604 8.68403 71.4562 7.77881C77.0326 10.5022 81.5528 14.4414 84.4148 19.1287C80.048 20.8394 75.1099 22.1915 69.7635 23.1082C68.9584 18.1007 67.329 13.6455 65.1303 10.1512ZM35.1569 7.77881C37.0489 8.68403 39.1748 9.4972 41.4809 10.1512C39.2802 13.6455 37.6508 18.1007 36.8476 23.1101C31.5012 22.1934 26.5613 20.8394 22.1964 19.1306C25.0584 14.4414 29.5785 10.5022 35.1569 7.77881ZM21.4507 20.4405C25.9977 22.1704 31.1217 23.532 36.6559 24.4449C36.4297 26.2055 36.307 28.0294 36.2917 29.8936H18.8321C18.9836 26.5546 19.9018 23.369 21.4507 20.4405ZM4.67544 31.4815H17.3311C17.4212 35.0756 18.326 38.5066 19.9094 41.6634C17.3465 42.7432 14.9886 43.9322 12.8646 45.2153C7.97259 41.2664 5.00324 36.5543 4.67544 31.4815ZM14.2659 46.2931C16.1906 45.1136 18.3203 44.0128 20.6321 43.0078C23.243 47.5416 27.2763 51.4387 32.2699 54.3308C25.1293 52.4724 18.9548 49.6973 14.2659 46.2931ZM39.6943 55.8689C37.8981 55.261 36.1805 54.536 34.5569 53.7075C36.6828 52.6182 39.1805 51.7168 41.9486 51.0513C43.6643 53.5771 45.6924 55.5333 47.9257 56.7569C45.1039 56.5862 42.3512 56.289 39.6943 55.8689ZM43.185 50.7751C46.3001 50.125 49.7199 49.7663 53.3065 49.7663C56.8912 49.7663 60.3092 50.1269 63.4242 50.7751C60.6753 54.5744 57.1481 56.8547 53.3065 56.8547C49.4592 56.8547 45.9339 54.5744 43.185 50.7751ZM66.915 55.8689C64.2581 56.287 61.5073 56.5862 58.6836 56.7569C60.9168 55.5333 62.945 53.5771 64.6626 51.0513C67.4306 51.7168 69.9284 52.6182 72.0524 53.7075C70.4287 54.536 68.7131 55.261 66.915 55.8689ZM65.2587 50.1288C66.8479 47.5474 68.1284 44.4577 69.0064 41.0229H67.8447C66.9552 44.3714 65.669 47.3575 64.0817 49.8085C60.775 48.9608 57.1328 48.4392 53.3085 48.4392C49.4803 48.4392 45.84 48.9608 42.5314 49.8085C40.9403 47.3575 39.6559 44.3714 38.7665 41.0229H37.6086C38.4847 44.4596 39.7652 47.5493 41.3544 50.1288C38.4674 50.9573 35.8719 52.0352 33.6578 53.2281C28.6795 50.5047 24.6539 46.7726 22.0545 42.4133C23.4405 41.8514 24.8897 41.3259 26.3887 40.8349V39.3198C24.6328 39.8626 22.9363 40.4513 21.3203 41.09C19.7887 38.1116 18.9069 34.8723 18.8168 31.4796H36.307C36.3185 31.9495 36.3377 32.4175 36.3665 32.8835H37.484C37.4572 32.4194 37.4361 31.9495 37.4227 31.4796H69.1942C69.1789 31.9495 69.1578 32.4175 69.131 32.8835H70.2466C70.2735 32.4194 70.2926 31.9495 70.3061 31.4796H87.7963C87.7043 34.8723 86.8244 38.1116 85.2908 41.09C83.6729 40.4533 81.9803 39.8645 80.2243 39.3198V40.8349C81.7215 41.324 83.1726 41.8494 84.5586 42.4133C81.9611 46.7726 77.9374 50.5047 72.9534 53.2281C70.7412 52.0371 68.1456 50.9592 65.2587 50.1288ZM74.3412 54.3308C79.3349 51.4387 83.3662 47.5397 85.9771 43.0078C88.2909 44.0128 90.4187 45.1156 92.3452 46.2931C87.6544 49.6973 81.4819 52.4724 74.3412 54.3308ZM93.7427 45.2172C91.6187 43.9342 89.2589 42.7432 86.6979 41.6653C88.2794 38.5066 89.188 35.0775 89.2762 31.4835H101.932C101.606 36.5543 98.6386 41.2664 93.7427 45.2172ZM69.3705 3.85486L68.3354 3.67267L68.9334 2.63703L69.152 2.14414L69.1635 2.14606L69.1865 2.66963L69.3705 3.85486ZM74.2894 6.3404C74.1955 6.2867 74.0977 6.23875 73.998 6.19656L74.2913 5.04777C74.3086 5.05736 74.3392 5.06695 74.3833 5.08037C74.4255 5.0938 74.4715 5.10722 74.5194 5.12065C74.5495 5.12943 74.5796 5.13739 74.6086 5.14507C74.624 5.14913 74.639 5.15311 74.6536 5.15709C74.6958 5.16668 74.7265 5.17435 74.7456 5.1801C74.9527 5.23188 75.1616 5.25681 75.3706 5.2549C75.5795 5.25106 75.7731 5.21462 75.9495 5.14558C76.1278 5.07654 76.2811 4.96914 76.4134 4.82722C76.5457 4.68529 76.6396 4.49926 76.6971 4.27296C76.7565 4.03514 76.7603 3.82418 76.7086 3.64198C76.6549 3.45979 76.5667 3.30061 76.4383 3.16636C76.3099 3.03211 76.1546 2.92087 75.9706 2.83073C75.7865 2.74059 75.5929 2.67155 75.3897 2.61977C75.2249 2.57758 75.0408 2.53922 74.8396 2.5047C74.6383 2.47018 74.46 2.43374 74.3067 2.39538L73.5801 2.21318L73.5245 2.43182C73.5801 2.48552 73.6453 2.5373 73.7182 2.58716C73.7929 2.63703 73.8715 2.67922 73.9558 2.71758L73.1335 5.97985C73.053 5.97601 72.9686 5.97793 72.8785 5.98368C72.7903 5.98943 72.7041 6.00478 72.6197 6.02779L72.5641 6.24643L74.483 6.72973L74.5386 6.51109C74.4677 6.45164 74.3833 6.3941 74.2894 6.3404ZM74.9603 2.91703C75.0063 2.92087 75.0677 2.9343 75.1444 2.95347C75.3897 3.01676 75.5699 3.13951 75.6849 3.32362C75.798 3.50773 75.8153 3.75322 75.7386 4.06007C75.6964 4.22117 75.6389 4.35351 75.5642 4.45707C75.4894 4.56063 75.4051 4.63927 75.3111 4.69297C75.2203 4.74621 75.1189 4.77893 75.014 4.78886C74.9086 4.80037 74.8051 4.79269 74.7015 4.76584C74.6594 4.75626 74.6038 4.74091 74.5348 4.72173C74.4658 4.70256 74.4159 4.68338 74.3833 4.66228L74.8242 2.90936C74.8702 2.90936 74.9143 2.91128 74.9603 2.91703ZM77.3297 4.4283C77.1667 4.65461 77.0383 4.91352 76.9463 5.20887C76.8543 5.50422 76.8102 5.78998 76.8179 6.06423C76.8217 6.34232 76.8754 6.59931 76.9808 6.83329C77.0843 7.06727 77.2415 7.27439 77.4466 7.45084C77.6537 7.6292 77.9105 7.76537 78.2211 7.86318C78.5316 7.96099 78.8211 7.99551 79.0914 7.96866C79.3616 7.94181 79.6051 7.86126 79.8236 7.72893C80.0422 7.59659 80.2319 7.41632 80.3949 7.19193C80.5559 6.96562 80.6843 6.70671 80.7764 6.41136C80.8684 6.11601 80.9125 5.83025 80.9086 5.55216C80.9048 5.27408 80.8511 5.019 80.7476 4.78502C80.6441 4.55105 80.4888 4.34583 80.2837 4.16939C80.0767 3.99103 79.8198 3.85486 79.5093 3.75705C79.1987 3.65924 78.9092 3.62472 78.639 3.65157C78.3687 3.68034 78.1233 3.75897 77.9029 3.8913C77.6824 4.02364 77.4926 4.20391 77.3297 4.4283ZM77.7552 6.20232C77.7821 5.98368 77.8338 5.75354 77.9105 5.51189C77.9799 5.28627 78.0651 5.06581 78.1655 4.85215C78.2575 4.65461 78.3629 4.49159 78.4799 4.36501C78.5968 4.23844 78.7271 4.15021 78.8709 4.10227C79.0147 4.05432 79.1738 4.05624 79.3482 4.11186C79.5303 4.16747 79.6703 4.25953 79.77 4.38419C79.8696 4.51077 79.9348 4.65845 79.9655 4.83297C79.9962 5.00749 79.9962 5.20311 79.9674 5.41983C79.9387 5.63655 79.8869 5.86669 79.8102 6.10834C79.7355 6.35191 79.6473 6.57054 79.5514 6.76616C79.4537 6.96179 79.3463 7.12289 79.2275 7.24946C79.1086 7.37604 78.9783 7.46426 78.8383 7.51413C78.6984 7.56399 78.5469 7.56399 78.384 7.51221C78.2057 7.45659 78.0677 7.36645 77.968 7.24179C77.8683 7.11521 77.8013 6.96562 77.7668 6.7911C77.7322 6.61657 77.7284 6.42095 77.7552 6.20232ZM80.4811 8.50566L82.1451 9.16348L82.2275 8.95252C82.1796 8.90073 82.124 8.84512 82.0626 8.78566C82.0013 8.72813 81.9304 8.67251 81.8537 8.62073L81.9016 8.4999L84.0965 7.08645L84.5182 6.7489L84.2901 7.16316L83.462 9.25937C83.3738 9.24595 83.2876 9.24211 83.2032 9.24403C83.1189 9.24595 83.046 9.24978 82.9847 9.25554L82.9023 9.4665L84.5662 10.1243L84.6486 9.91336C84.5968 9.85007 84.5393 9.79062 84.4742 9.73308C84.4109 9.67555 84.3381 9.62185 84.2595 9.5739L85.4959 6.44397C85.5841 6.45739 85.6723 6.46698 85.7604 6.47465C85.8486 6.4804 85.933 6.47657 86.0116 6.46123L86.094 6.25026L84.4301 5.59244L84.3476 5.8034C84.4397 5.91656 84.5642 6.02779 84.7214 6.13711L84.6697 6.26944L82.5093 7.6618L82.0588 8.00702L82.285 7.59851L83.115 5.49846C83.2013 5.51572 83.2856 5.5234 83.3681 5.52148C83.4486 5.51956 83.5234 5.51381 83.5924 5.5023L83.6748 5.29134L82.0109 4.63351L81.9285 4.84448C81.9783 4.9116 82.0396 4.97297 82.1105 5.02859C82.1815 5.08421 82.2505 5.13599 82.3176 5.18394L81.0812 8.31387C80.9987 8.29469 80.9125 8.2851 80.8243 8.28319C80.7342 8.28127 80.6479 8.2851 80.5636 8.29469L80.4811 8.50566ZM83.7246 4.99599C83.8512 5.08229 83.9988 5.159 84.1674 5.22613C84.5144 5.3623 84.8115 5.40833 85.0627 5.3623C85.3099 5.31627 85.4806 5.17435 85.5745 4.93845C85.5112 4.85982 85.4307 4.78886 85.3329 4.72557C85.2333 4.66228 85.1489 4.62201 85.0799 4.60283L84.8518 4.62776L84.6754 5.07462C84.6179 5.0727 84.5489 5.06119 84.4703 5.03818C84.3917 5.01517 84.3266 4.99407 84.2748 4.97297C84.2096 4.94612 84.1444 4.91544 84.0793 4.879C84.0141 4.84448 83.9623 4.80228 83.9202 4.75626L84.0908 4.32474L83.9412 4.15021C83.8473 4.11761 83.7438 4.08693 83.6288 4.05816C83.5138 4.02939 83.4141 4.02747 83.3297 4.04857C83.2837 4.16747 83.2684 4.28255 83.2856 4.3957C83.3029 4.50885 83.3489 4.61625 83.4237 4.71598C83.4984 4.81763 83.5981 4.90968 83.7246 4.99599ZM85.5266 10.5904L87.363 11.4898L87.4646 11.2865C87.409 11.2175 87.3438 11.1465 87.2652 11.0775C87.1866 11.0065 87.1061 10.9413 87.0218 10.878L88.5055 7.844L89.1247 8.14702L89.0192 9.22677L89.2435 9.33609C89.2934 9.26704 89.3528 9.18266 89.4199 9.08101C89.5607 8.86792 89.6937 8.64978 89.8186 8.42702C89.8819 8.31771 89.9336 8.2199 89.9758 8.13359L86.5751 6.4689C86.5349 6.54945 86.4908 6.65109 86.4409 6.77C86.3911 6.88891 86.3432 7.00973 86.2972 7.13247C86.2493 7.25522 86.2071 7.37604 86.1668 7.49303C86.1266 7.61002 86.0978 7.70783 86.0767 7.78646L86.2953 7.89386L87.0831 7.14782L87.7023 7.45084L86.2186 10.4849C86.1189 10.4542 86.0173 10.4312 85.9119 10.4178C85.8064 10.4043 85.7106 10.3928 85.6262 10.3871L85.5266 10.5904ZM90.3324 8.58621C90.409 8.72813 90.5183 8.86046 90.6621 8.9832L88.9426 11.8715C88.8621 11.837 88.7777 11.8101 88.6934 11.7948C88.6071 11.7794 88.5208 11.7718 88.4346 11.7698L88.3196 11.9635L89.0499 12.3989C89.0837 12.4189 89.124 12.4438 89.1713 12.4731C89.1965 12.4887 89.2238 12.5056 89.2531 12.5236C89.2953 12.5494 89.3374 12.5758 89.3796 12.6022C89.4218 12.6286 89.464 12.6549 89.5061 12.6808C89.5662 12.7177 89.6214 12.7526 89.6724 12.7849C89.6931 12.798 89.713 12.8106 89.7323 12.8227L89.7665 12.8442C89.814 12.8741 89.8448 12.8935 89.8589 12.9014C90.0621 13.0222 90.2653 13.1123 90.4685 13.1718C90.6697 13.2312 90.8614 13.2523 91.0435 13.2389C91.2257 13.2255 91.3924 13.1718 91.5477 13.0797C91.703 12.9877 91.8333 12.8515 91.9407 12.6712C92.0519 12.4833 92.1132 12.303 92.1228 12.1285C92.1305 11.954 92.1017 11.7909 92.0346 11.6375C91.9675 11.4841 91.8659 11.3422 91.7317 11.2117C91.5975 11.0813 91.4442 10.9643 91.2697 10.8608C91.2372 10.8397 91.1969 10.8167 91.149 10.7917C91.1161 10.7725 91.0822 10.7553 91.048 10.7379C91.0344 10.731 91.0208 10.724 91.0071 10.7169L91.0069 10.7168C90.959 10.6938 90.9112 10.6709 90.8633 10.6498C90.8514 10.6445 90.8398 10.6395 90.8288 10.6347C90.7958 10.6202 90.767 10.6076 90.7426 10.5961L91.4365 9.43198L92.3547 9.98048L92.2359 10.8991L92.4448 11.0238C92.5004 10.9605 92.5618 10.8895 92.6289 10.809C92.694 10.7284 92.7611 10.6421 92.8282 10.5539C92.8953 10.4657 92.9605 10.3756 93.0237 10.2835C93.087 10.1914 93.1426 10.1071 93.1886 10.0284L90.4474 8.3925L90.3324 8.58621ZM90.6851 10.9739C90.7388 10.9989 90.7943 11.0276 90.848 11.0602C91.0819 11.2002 91.2141 11.3671 91.2429 11.557C91.2697 11.7487 91.218 11.9578 91.0838 12.1822C90.9439 12.4181 90.779 12.5658 90.5873 12.6271C90.3956 12.6885 90.2001 12.6597 89.9988 12.5389C89.9453 12.5089 89.8928 12.4769 89.8416 12.443C89.8129 12.4219 89.7841 12.4027 89.7573 12.3816C89.7403 12.3683 89.7264 12.3573 89.7156 12.348C89.7093 12.3427 89.704 12.3379 89.6998 12.3337L90.5432 10.9202C90.5835 10.9317 90.6314 10.949 90.6851 10.9739ZM96.179 12.8247C96.3075 12.6827 96.4283 12.5427 96.5394 12.4027L94.0206 10.5539L93.8864 10.7361C93.917 10.8071 93.9611 10.8819 94.0148 10.9586C94.0685 11.0353 94.1222 11.1043 94.1777 11.1638L92.1899 13.8795C92.1074 13.8373 92.0231 13.8047 91.9368 13.7817C91.8506 13.7587 91.7701 13.7414 91.6953 13.7299L91.5611 13.9121L94.1547 15.8127C94.2065 15.7417 94.2602 15.6631 94.3158 15.5768C94.3714 15.4905 94.425 15.4042 94.4768 15.316C94.5286 15.2277 94.5746 15.1414 94.6187 15.0551C94.6627 14.9688 94.7011 14.8921 94.7318 14.8211L94.5343 14.6773L93.8346 15.1012L92.8991 14.4165L93.8116 13.1699L94.3963 13.5976L94.3292 14.1307L94.4826 14.2439C94.6206 14.0885 94.7605 13.9159 94.9004 13.7241C95.0404 13.5323 95.1592 13.3521 95.2589 13.1833L95.1056 13.0701L94.6244 13.2849L94.0397 12.8573L94.9004 11.6816L95.7976 12.3394L95.604 13.0663L95.8014 13.2101C95.9241 13.0951 96.0506 12.9666 96.179 12.8247ZM95.8877 16.9154C95.8321 16.8215 95.7688 16.7332 95.7017 16.6489L96.5088 15.7762C96.5203 15.7916 96.5414 15.8165 96.5739 15.8491L96.6755 15.9508C96.71 15.9872 96.7426 16.0198 96.7752 16.0486C96.8059 16.0793 96.8289 16.1004 96.8442 16.1138C97.0014 16.2576 97.172 16.3804 97.3561 16.4782C97.5401 16.576 97.726 16.6374 97.9158 16.6604C98.1056 16.6834 98.2915 16.6642 98.4756 16.6028C98.6596 16.5395 98.8302 16.4245 98.9893 16.2519C99.1561 16.0716 99.2596 15.8894 99.3018 15.7034C99.3439 15.5173 99.342 15.3351 99.2941 15.1568C99.2428 14.9706 99.1583 14.7952 99.0449 14.6389C98.926 14.4721 98.7899 14.3167 98.6366 14.1748C98.512 14.0578 98.3701 13.937 98.2091 13.8104C98.0481 13.6819 97.9101 13.565 97.7931 13.4576L97.243 12.9493L97.0896 13.1143C97.1148 13.1936 97.1469 13.2706 97.1854 13.3444C97.2276 13.423 97.2755 13.4997 97.3311 13.5726L95.0461 16.0428C94.9771 16.0006 94.9005 15.9623 94.8199 15.9239C94.7394 15.8875 94.6551 15.8587 94.5707 15.8395L94.4174 16.0045L95.8704 17.3489L96.0238 17.1839C95.9893 17.0976 95.9452 17.0094 95.8877 16.9154ZM98.1171 14.2324C98.1554 14.2592 98.2034 14.2995 98.2609 14.3532C98.4487 14.5258 98.5465 14.7195 98.5561 14.9343C98.5676 15.151 98.4641 15.3754 98.2494 15.6075C98.1363 15.7302 98.0212 15.8184 97.9062 15.874C97.7912 15.9277 97.6781 15.9584 97.5708 15.9603C97.4634 15.9623 97.3599 15.9431 97.264 15.9028C97.1682 15.8625 97.08 15.805 97.0014 15.7321C96.978 15.7115 96.9507 15.6849 96.9179 15.653C96.9051 15.6405 96.8914 15.6273 96.8768 15.6132C96.8251 15.5634 96.7906 15.5212 96.7733 15.4886L98.0002 14.1614C98.0404 14.1825 98.0788 14.2055 98.1171 14.2324ZM98.4621 19.6445C98.4238 19.5506 98.3797 19.4585 98.3299 19.3722L100.937 17.228L101.533 17.953L100.968 18.9043L101.123 19.0922C101.209 19.0423 101.307 18.9829 101.412 18.9158C101.518 18.8486 101.625 18.7758 101.731 18.699C101.836 18.6223 101.938 18.5456 102.035 18.4708C102.133 18.396 102.219 18.3289 102.292 18.2675L100.36 15.9162L100.185 16.0601C100.201 16.1445 100.224 16.2288 100.256 16.3132C100.289 16.3957 100.323 16.4743 100.362 16.5453L97.7644 18.6837C97.6474 18.5859 97.4998 18.4958 97.3216 18.4171L97.1471 18.561L98.3855 20.0665L98.5599 19.9226C98.5312 19.8325 98.4986 19.7404 98.4621 19.6445ZM98.8244 20.4481L99.5701 21.712L99.7637 21.5988C99.758 21.4128 99.7216 21.2344 99.6487 21.0657L100.64 20.8873L101.311 22.0246L100.672 22.8013C100.619 22.7419 100.555 22.6824 100.485 22.623C100.414 22.5635 100.343 22.5098 100.274 22.4638L100.08 22.5789L101.025 24.1822L101.219 24.0671C101.223 23.9961 101.219 23.9175 101.203 23.8351C101.19 23.7507 101.169 23.672 101.142 23.5953L103.686 20.3618L103.462 19.9821L99.3804 20.6092C99.3305 20.5574 99.2749 20.5057 99.2117 20.4577C99.1484 20.4078 99.0851 20.3676 99.0181 20.3331L98.8244 20.4481ZM101.583 21.7197L101.048 20.8125L102.225 20.5977L102.743 20.4443L102.748 20.4539L102.365 20.8106L101.583 21.7197ZM55.8138 14.4894H61.1756V18.2483H55.8138V23.4457H51.0962V18.2483H45.7326V14.4894H51.0962V9.29006H55.8138V14.4894ZM40.5338 35.3307H39.7613V39.6612H40.5281V36.2148L42.1096 38.3014H42.5064L44.153 36.209V39.6612H44.9122V35.3307H44.1377L42.3396 37.5937L40.5338 35.3307ZM48.9454 35.3307H45.6023V39.6612H49.0163V39.1261H46.4304V37.4269H48.8726V36.8247H46.4304V35.8677H48.9454V35.3307ZM51.9742 35.8926L50.7723 39.1318H53.04V35.8792L51.9742 35.8926ZM49.3901 39.4272C49.4707 39.0916 50.0017 39.1107 50.0017 39.1107L51.1288 35.8926L50.6227 35.8734V35.3383H53.8528V39.1318H54.1749C54.1749 39.1318 54.564 39.0762 54.564 39.5058C54.564 39.9412 54.1672 40.7505 54.1672 40.7505H53.2988L53.6937 39.6612H50.1991L50.5825 40.7505H49.7448C49.7448 40.7505 49.3116 39.7628 49.3901 39.4272ZM62.8356 35.3364V39.1184V39.1203H60.5468V35.3383H59.642V39.6612H63.5602L63.2152 40.6815L64.0184 40.7237C64.0184 40.7237 64.488 39.4866 64.3692 39.2891C64.2503 39.0916 63.7385 39.1184 63.7385 39.1184V35.3364H62.8356ZM68.0401 36.1515V39.6612H68.7858V35.3307H67.9366L65.7206 37.5899V35.3307H64.8446V39.6612H65.6593L65.6938 38.4011L68.0401 36.1515ZM58.2388 36.1304V39.6612H58.9826V35.3307H58.1391L55.9193 37.5899V35.3307H55.0451V39.6612H55.8579L55.8924 38.4203L58.2388 36.1304ZM72.8153 36.8055V35.3249H73.5705V39.6612H72.8153V37.5515H70.513V39.6612H69.7558V37.5918H69.3609V36.8208H69.7558V35.3249H70.513V36.8208L72.8153 36.8055ZM76.237 35.298H77.23L79.2677 39.6612H78.3553L77.3968 37.4921H76.0952L75.1309 39.6612H74.2185L75.221 37.4921H74.6498V36.8784H75.5028L76.237 35.298ZM76.7048 35.9904L76.3003 36.8515H77.1572L76.7048 35.9904ZM29.3293 35.298H30.3223L32.36 39.6612H31.4475L30.4909 37.4921H29.1893L28.2251 39.6612H27.3126L28.3152 37.4921H27.744V36.8784H28.597L29.3293 35.298ZM29.797 35.9904L29.3925 36.8515H30.2494L29.797 35.9904ZM34.5894 35.2865C35.2354 35.2865 35.7779 35.5033 36.2015 35.9271C36.6213 36.349 36.8341 36.888 36.8341 37.5285C36.8341 38.1691 36.6213 38.708 36.2035 39.128C35.7798 39.5518 35.2373 39.7666 34.5894 39.7666C33.9453 39.7666 33.4047 39.5518 32.9849 39.128C32.567 38.7099 32.3561 38.171 32.3561 37.5285C32.3561 36.8841 32.5689 36.3452 32.9868 35.9252C33.4085 35.5013 33.9472 35.2865 34.5894 35.2865ZM33.5581 38.6255C33.8341 38.9113 34.1715 39.0494 34.5894 39.0494C35.0092 39.0494 35.3466 38.9113 35.6207 38.6255C35.9006 38.3359 36.0367 37.9773 36.0367 37.5266C36.0367 37.0817 35.8967 36.7115 35.6226 36.4258C35.3485 36.14 35.0111 36.0019 34.5894 36.0019C34.1715 36.0019 33.8341 36.1419 33.5581 36.4277C33.2839 36.7134 33.144 37.0817 33.144 37.5266C33.144 37.9773 33.2801 38.3359 33.5581 38.6255Z" fill="#3F4374"/>
</svg>
